<?xml version="1.0" encoding="utf-8"?>
<!-- Generator: Adobe Illustrator 18.0.0, SVG Export Plug-In . SVG Version: 6.00 Build 0)  -->
<!DOCTYPE svg PUBLIC "-//W3C//DTD SVG 1.1//EN" "http://www.w3.org/Graphics/SVG/1.1/DTD/svg11.dtd">
<svg version="1.1" id="Layer_1" xmlns="http://www.w3.org/2000/svg" xmlns:xlink="http://www.w3.org/1999/xlink" x="0px" y="0px"
	 viewBox="0 0 1130.8 314.8" enable-background="new 0 0 1130.8 314.8" xml:space="preserve">
<g>
	<path fill="none" d="M426.6,126.7c-8.4,0-15,2.9-20,8.8c-5,5.9-7.4,13.7-7.4,23.4c0,9.7,2.4,17.5,7.3,23.4
		c4.9,5.9,11.4,8.8,19.6,8.8c8.2,0,14.7-2.9,19.7-8.7c4.9-5.8,7.4-13.5,7.4-23c0-9.5-2.4-17.4-7.3-23.5
		C441.1,129.8,434.6,126.7,426.6,126.7z"/>
	<path fill="#FFFFFF" d="M305.7,214.9c0,4.8-0.4,8.7-1.2,11.6c-0.8,3-2.6,5.7-5.4,8.2c-2.8,2.5-7.1,4.7-12.9,6.8l15.8,29.4
		c11.4-3.7,20.3-7.7,26.6-12c6.3-4.3,10.8-9.2,13.3-15c2.6-5.7,3.8-12.9,3.9-21.6L346,97.2l-40.2,0L305.7,214.9z"/>
	<path fill="#FFFFFF" d="M325.8,40.8c-5.7,0-10.6,2-14.9,5.9c-4.4,4.1-7.1,9.9-7.2,16c-0.1,6.1,2.1,11.4,6.6,15.8
		c5.6,5.5,12.3,7.5,20.1,6.1c3.3-0.6,6.4-2.1,9-4.3c5.7-4.7,8.5-10.4,8.5-17.3c0-6-2.1-11.2-6.3-15.5
		C337.6,43.3,331.8,40.8,325.8,40.8z"/>
	<path fill="#FFFFFF" d="M461.1,101.3c-10.3-5.2-22.2-7.8-35.7-7.8c-13.3,0-25.1,2.6-35.4,7.9c-10.3,5.3-18.4,12.9-24.3,22.7
		c-5.9,9.9-8.8,21.5-8.9,34.8c0,13.8,2.8,25.6,8.5,35.4c5.7,9.8,13.7,17.2,23.9,22.3c10.2,5,22.1,7.6,35.5,7.6
		c13.3,0,25.2-2.6,35.6-7.8c10.4-5.2,18.6-12.6,24.4-22.4c5.9-9.7,8.8-21.2,8.9-34.5c0-13.8-2.8-25.7-8.5-35.6
		C479.4,114.1,471.4,106.5,461.1,101.3z M444.7,182.5c-5,5.8-11.5,8.7-19.7,8.7c-8.2,0-14.7-3-19.6-8.8c-4.9-5.9-7.3-13.7-7.3-23.4
		c0-9.7,2.5-17.5,7.4-23.4c4.9-5.9,11.6-8.8,20-8.8c8,0,14.4,3.1,19.3,9.2c4.9,6.1,7.3,14,7.3,23.5
		C452.2,169,449.7,176.7,444.7,182.5z"/>
	<path fill="#FFFFFF" d="M503.7,214.9c0,4.8-0.4,8.7-1.2,11.6c-0.8,3-2.6,5.7-5.4,8.2c-2.8,2.5-7.1,4.7-12.9,6.8l15.8,29.4
		c11.4-3.7,20.3-7.7,26.6-12c6.3-4.3,10.8-9.2,13.3-15c2.6-5.7,3.8-12.9,3.9-21.6L544,97.2l-40.2,0L503.7,214.9z"/>
	<path fill="#FFFFFF" d="M523.8,40.8c-5.7,0-10.6,2-14.9,5.9c-4.4,4.1-7.1,9.9-7.2,16c-0.1,6.1,2.1,11.4,6.6,15.8
		c5.6,5.5,12.3,7.5,20.1,6.1c3.3-0.6,6.4-2.1,9-4.3c5.7-4.7,8.5-10.4,8.5-17.3c0-6-2.1-11.2-6.3-15.5
		C535.6,43.3,529.8,40.8,523.8,40.8z"/>
	<path fill="#FFFFFF" d="M659.1,101.3c-10.3-5.2-22.2-7.8-35.7-7.8c-13.3,0-25.1,2.6-35.4,7.9c-10.3,5.3-18.4,12.9-24.3,22.7
		c-5.9,9.9-8.8,21.5-8.9,34.8c0,13.8,2.8,25.6,8.5,35.4c5.7,9.8,13.7,17.2,23.9,22.3c10.2,5,22.1,7.6,35.5,7.6
		c13.3,0,25.2-2.6,35.6-7.8c10.4-5.2,18.6-12.6,24.4-22.4c5.9-9.7,8.8-21.2,8.9-34.5c0-13.8-2.8-25.7-8.5-35.6
		C677.4,114.1,669.4,106.5,659.1,101.3z M642.7,182.5c-5,5.8-11.5,8.7-19.7,8.7c-8.2,0-14.7-3-19.6-8.8c-4.9-5.9-7.3-13.7-7.3-23.4
		c0-9.7,2.5-17.5,7.4-23.4c4.9-5.9,11.6-8.8,20-8.8c8,0,14.4,3.1,19.3,9.2c4.9,6.1,7.3,14,7.3,23.5
		C650.2,169,647.7,176.7,642.7,182.5z"/>
	<path fill="#FFFFFF" d="M760.7,93.6c-7.3,0-14.3,1.4-21,4.3l0-57l-39.9,2.8l-0.2,177.8l20.5,0l7.2-8.2c10.4,7.3,21,11,31.7,11
		c19.9,0,35.7-5.8,47.2-17.5c11.5-11.7,17.3-27.8,17.3-48.5c0-20.6-5.6-36.6-17-47.8C795.3,99.2,780,93.6,760.7,93.6z M775.5,183
		c-4.6,6.2-10.7,9.3-18.2,9.3c-5.8,0-11.7-1.8-17.6-5.4l0-55.2c5.8-3.9,11.3-5.9,16.6-5.9c8.2,0,14.6,2.9,19.2,8.7
		c4.6,5.8,6.9,13.8,6.9,24C782.4,168.6,780.1,176.8,775.5,183z"/>
	<path fill="#FFFFFF" d="M929.2,102.4c-8.7-5.8-19.3-8.7-32-8.7c-12.6,0-23.8,2.7-33.6,8c-9.8,5.4-17.4,13-22.9,23
		c-5.5,10-8.2,21.6-8.2,34.9c0,20.3,6.5,36.2,19.5,47.6c13,11.4,30.9,17.2,53.6,17.2c10.1,0,19.3-1.3,27.8-3.8
		c8.4-2.6,15.6-6,21.4-10.2l-11.2-27.9c-11.6,6.5-23.3,9.7-35,9.7c-18.1,0-29-7.3-32.7-21.8l79.5,0.1l0-12c0-12.1-2.2-23-6.5-32.7
		S937.9,108.2,929.2,102.4z M875.2,147.7c0.7-6.3,3-11.4,6.8-15.2c3.8-3.8,8.6-5.7,14.2-5.7c6,0,10.7,1.9,14.2,5.8
		c3.5,3.8,5.7,8.9,6.8,15.2L875.2,147.7z"/>
	<path fill="#FFFFFF" d="M1087,158.6c0-12.1-2.2-23-6.5-32.7c-4.3-9.7-10.9-17.5-19.5-23.3c-8.7-5.8-19.3-8.7-32-8.7
		c-12.6,0-23.8,2.7-33.6,8c-9.8,5.4-17.4,13-22.9,23c-5.5,10-8.2,21.6-8.2,34.9c0,20.3,6.5,36.2,19.5,47.6
		c13,11.4,30.9,17.2,53.6,17.2c10.1,0,19.3-1.3,27.8-3.8c8.4-2.6,15.6-6,21.4-10.2l-11.2-27.9c-11.6,6.5-23.3,9.7-35,9.7
		c-18.1,0-29-7.3-32.7-21.8l79.5,0.1L1087,158.6z M1007,147.8c0.7-6.3,3-11.4,6.8-15.2c3.8-3.8,8.6-5.7,14.2-5.7
		c6,0,10.7,1.9,14.2,5.8c3.5,3.8,5.7,8.9,6.8,15.2L1007,147.8z"/>
	<path fill="#FFFFFF" d="M231.3,80.9l-58.9-34c-14.6-8.4-32.5-8.4-47.1,0l-58.9,34c-14.6,8.4-23.6,24-23.6,40.8v68
		c0,16.8,9,32.4,23.6,40.8l58.9,34c14.6,8.4,32.5,8.4,47.1,0l58.9-34c14.6-8.4,23.6-24,23.6-40.8v-68
		C254.9,104.9,245.9,89.4,231.3,80.9z M94.8,133.4c4.8-11.7,13.4-21.9,25.2-28.6c11.8-6.7,25-8.8,37.5-7c5,0.7,6.2,7.3,1.8,9.8
		L102.2,140C97.9,142.5,92.9,138.1,94.8,133.4z M112.4,188.6c-5,2.9-11.5,1.2-14.3-3.9c0,0,0-0.1-0.1-0.1s0-0.1-0.1-0.1
		c-2.8-5-1-11.4,4.1-14.3l83.5-47.3c5-2.9,11.5-1.2,14.3,3.9c0,0,0,0.1,0.1,0.1c0,0,0,0.1,0.1,0.1c2.8,5,1,11.4-4.1,14.3
		L112.4,188.6z M203,178c-3.3,8.1-8.4,15.4-15.2,21.4l-0.3,15c-0.1,3.8-4.2,6.1-7.5,4.2l-12.8-7.4c-8.9,2.9-18.1,3.7-27,2.3
		c-5-0.7-6.2-7.3-1.8-9.8l57.1-32.4C199.9,169,204.9,173.4,203,178z"/>
	<path fill="#F7B93C" d="M195.5,171.4l-57.1,32.4c-4.4,2.5-3.1,9.1,1.8,9.8c8.9,1.3,18.2,0.6,27-2.3l12.8,7.4
		c3.3,1.9,7.4-0.4,7.5-4.2l0.3-15c6.7-6,11.9-13.4,15.2-21.4C204.9,173.4,199.9,169,195.5,171.4z"/>
	<path fill="#F7B93C" d="M102.2,140l57.1-32.4c4.4-2.5,3.1-9.1-1.8-9.8c-12.5-1.9-25.7,0.3-37.5,7c-11.8,6.7-20.4,16.9-25.2,28.6
		C92.9,138.1,97.9,142.5,102.2,140z"/>
	<path fill="#F7B93C" d="M199.9,126.9C199.8,126.9,199.8,126.9,199.9,126.9c-0.1-0.1-0.1-0.2-0.1-0.2c-2.9-5-9.3-6.7-14.3-3.9
		L102,170.2c-5,2.9-6.9,9.3-4.1,14.3c0,0,0,0.1,0.1,0.1s0,0.1,0.1,0.1c2.9,5,9.3,6.7,14.3,3.9l83.5-47.3
		C200.8,138.4,202.7,132,199.9,126.9z"/>
</g>
</svg>
